<?xml version="1.0" encoding="utf-8" ?>
<svg baseProfile="full" height="800px" version="1.1" width="1300px" xmlns="http://www.w3.org/2000/svg" xmlns:ev="http://www.w3.org/2001/xml-events" xmlns:xlink="http://www.w3.org/1999/xlink"><defs /><line stroke="black" stroke-width="2" x1="120" x2="1000" y1="700" y2="700" /><text x="180" y="720">1945</text><text x="240" y="720">1950</text><text x="300" y="720">1955</text><text x="360" y="720">1960</text><text x="420" y="720">1965</text><text x="480" y="720">1970</text><text x="540" y="720">1975</text><text x="600" y="720">1980</text><text x="660" y="720">1985</text><text x="720" y="720">1990</text><text x="780" y="720">1995</text><text x="840" y="720">2000</text><text x="900" y="720">2005</text><text x="960" y="720">2010</text><text x="1020" y="705">Años</text><line stroke="black" stroke-width="2" x1="120" x2="1000" y1="700" y2="700" /><text x="180" y="720">1945</text><text x="240" y="720">1950</text><text x="300" y="720">1955</text><text x="360" y="720">1960</text><text x="420" y="720">1965</text><text x="480" y="720">1970</text><text x="540" y="720">1975</text><text x="600" y="720">1980</text><text x="660" y="720">1985</text><text x="720" y="720">1990</text><text x="780" y="720">1995</text><text x="840" y="720">2000</text><text x="900" y="720">2005</text><text x="960" y="720">2010</text><text x="1020" y="705">Años</text></svg>