<?xml version="1.0" encoding="utf-8" ?>
<svg baseProfile="full" height="600px" version="1.1" width="1200px" xmlns="http://www.w3.org/2000/svg" xmlns:ev="http://www.w3.org/2001/xml-events" xmlns:xlink="http://www.w3.org/1999/xlink"><defs /><line stroke="black" stroke-width="3" x1="90" x2="90" y1="150" y2="450" /><line stroke="black" stroke-width="3" x1="90" x2="850" y1="450" y2="450" /><text x="30" y="210">Africa</text><text x="30" y="260">Europa</text><text x="30" y="310">America</text><text x="30" y="360">Asia</text><text x="30" y="410">Oceania</text><text x="120" y="480">chrstgen</text><text x="190" y="480">islmgen</text><text x="260" y="480">islmsun</text><text x="330" y="480">chrstcat</text><text x="400" y="480">hindgen</text><text x="470" y="480">nonrelig</text><text x="540" y="480">syncgen</text><text x="610" y="480">chrstprot</text><text x="680" y="480">budgen</text><text x="750" y="480">budothr</text><rect fill="rgb(252, 154, 43)" height="55" width="70" x="110" y="175" /><rect fill="rgb(188,21,12)" height="55" width="70" x="110" y="230" /><rect fill="rgb(166, 37, 16)" height="55" width="70" x="110" y="285" /><rect fill="rgb(254, 236, 108)" height="55" width="70" x="110" y="340" /><rect fill="rgb(232, 80, 4)" height="55" width="70" x="110" y="395" /><rect fill="rgb(252, 154, 43)" height="55" width="70" x="180" y="175" /><rect fill="rgb(254, 236, 108)" height="55" width="70" x="180" y="230" /><rect fill="rgb(254, 236, 108)" height="55" width="70" x="180" y="285" /><rect fill="rgb(249, 204, 41)" height="55" width="70" x="180" y="340" /><rect fill="rgb(254, 236, 108)" height="55" width="70" x="180" y="395" /><rect fill="rgb(252, 154, 43)" height="55" width="70" x="250" y="175" /><rect fill="rgb(254, 236, 108)" height="55" width="70" x="250" y="230" /><rect fill="rgb(254, 236, 108)" height="55" width="70" x="250" y="285" /><rect fill="rgb(249, 204, 41)" height="55" width="70" x="250" y="340" /><rect fill="rgb(254, 236, 108)" height="55" width="70" x="250" y="395" /><rect fill="rgb(254, 236, 108)" height="55" width="70" x="320" y="175" /><rect fill="rgb(252, 154, 43)" height="55" width="70" x="320" y="230" /><rect fill="rgb(232, 80, 4)" height="55" width="70" x="320" y="285" /><rect fill="rgb(254, 236, 108)" height="55" width="70" x="320" y="340" /><rect fill="rgb(249, 204, 41)" height="55" width="70" x="320" y="395" /><rect fill="rgb(254, 236, 108)" height="55" width="70" x="390" y="175" /><rect fill="rgb(254, 236, 108)" height="55" width="70" x="390" y="230" /><rect fill="rgb(254, 236, 108)" height="55" width="70" x="390" y="285" /><rect fill="rgb(249, 204, 41)" height="55" width="70" x="390" y="340" /><rect fill="rgb(254, 236, 108)" height="55" width="70" x="390" y="395" /><rect fill="rgb(254, 236, 108)" height="55" width="70" x="460" y="175" /><rect fill="rgb(249, 204, 41)" height="55" width="70" x="460" y="230" /><rect fill="rgb(254, 236, 108)" height="55" width="70" x="460" y="285" /><rect fill="rgb(254, 236, 108)" height="55" width="70" x="460" y="340" /><rect fill="rgb(249, 204, 41)" height="55" width="70" x="460" y="395" /><rect fill="rgb(254, 236, 108)" height="55" width="70" x="530" y="175" /><rect fill="rgb(254, 236, 108)" height="55" width="70" x="530" y="230" /><rect fill="rgb(254, 236, 108)" height="55" width="70" x="530" y="285" /><rect fill="rgb(254, 236, 108)" height="55" width="70" x="530" y="340" /><rect fill="rgb(254, 236, 108)" height="55" width="70" x="530" y="395" /><rect fill="rgb(254, 236, 108)" height="55" width="70" x="600" y="175" /><rect fill="rgb(254, 236, 108)" height="55" width="70" x="600" y="230" /><rect fill="rgb(249, 204, 41)" height="55" width="70" x="600" y="285" /><rect fill="rgb(254, 236, 108)" height="55" width="70" x="600" y="340" /><rect fill="rgb(254, 236, 108)" height="55" width="70" x="600" y="395" /><rect fill="rgb(254, 236, 108)" height="55" width="70" x="670" y="175" /><rect fill="rgb(254, 236, 108)" height="55" width="70" x="670" y="230" /><rect fill="rgb(254, 236, 108)" height="55" width="70" x="670" y="285" /><rect fill="rgb(254, 236, 108)" height="55" width="70" x="670" y="340" /><rect fill="rgb(254, 236, 108)" height="55" width="70" x="670" y="395" /><rect fill="rgb(254, 236, 108)" height="55" width="70" x="740" y="175" /><rect fill="rgb(254, 236, 108)" height="55" width="70" x="740" y="230" /><rect fill="rgb(254, 236, 108)" height="55" width="70" x="740" y="285" /><rect fill="rgb(254, 236, 108)" height="55" width="70" x="740" y="340" /><rect fill="rgb(254, 236, 108)" height="55" width="70" x="740" y="395" /></svg>