<?xml version="1.0" encoding="utf-8" ?>
<svg baseProfile="full" height="600px" version="1.1" width="1200px" xmlns="http://www.w3.org/2000/svg" xmlns:ev="http://www.w3.org/2001/xml-events" xmlns:xlink="http://www.w3.org/1999/xlink"><defs /><line stroke="black" stroke-width="1" x1="90" x2="90" y1="150" y2="450" /><line stroke="black" stroke-width="1" x1="90" x2="950" y1="450" y2="450" /><text x="30" y="210">Africa</text><text x="30" y="265">Europa</text><text x="30" y="320">America</text><text x="30" y="375">Asia</text><text x="30" y="430">Oceania</text><text x="120" y="480">Christianity</text><text x="203" y="480">Judaism</text><text x="286" y="480">Islam</text><text x="369" y="480">Buddhism</text><text x="452" y="480">Zoroast</text><text x="535" y="480">Hindu</text><text x="618" y="480">Sikh</text><text x="701" y="480">Shinto</text><text x="784" y="480">Baha’i</text><text x="867" y="480">Taoism</text><rect fill="rgb(252, 154, 43)" height="55" width="80" x="110" y="162" /><rect fill="rgb(188,21,12)" height="55" width="80" x="110" y="220" /><rect fill="rgb(166, 37, 16)" height="55" width="80" x="110" y="278" /><rect fill="rgb(254, 236, 108)" height="55" width="80" x="110" y="336" /><rect fill="rgb(232, 80, 4)" height="55" width="80" x="110" y="394" /><rect fill="rgb(254, 236, 108)" height="55" width="80" x="193" y="162" /><rect fill="rgb(254, 236, 108)" height="55" width="80" x="193" y="220" /><rect fill="rgb(254, 236, 108)" height="55" width="80" x="193" y="278" /><rect fill="rgb(254, 236, 108)" height="55" width="80" x="193" y="336" /><rect fill="rgb(254, 236, 108)" height="55" width="80" x="193" y="394" /><rect fill="rgb(252, 154, 43)" height="55" width="80" x="276" y="162" /><rect fill="rgb(254, 236, 108)" height="55" width="80" x="276" y="220" /><rect fill="rgb(254, 236, 108)" height="55" width="80" x="276" y="278" /><rect fill="rgb(249, 204, 41)" height="55" width="80" x="276" y="336" /><rect fill="rgb(254, 236, 108)" height="55" width="80" x="276" y="394" /><rect fill="rgb(254, 236, 108)" height="55" width="80" x="359" y="162" /><rect fill="rgb(254, 236, 108)" height="55" width="80" x="359" y="220" /><rect fill="rgb(254, 236, 108)" height="55" width="80" x="359" y="278" /><rect fill="rgb(254, 236, 108)" height="55" width="80" x="359" y="336" /><rect fill="rgb(254, 236, 108)" height="55" width="80" x="359" y="394" /><rect fill="rgb(254, 236, 108)" height="55" width="80" x="442" y="162" /><rect fill="rgb(254, 236, 108)" height="55" width="80" x="442" y="220" /><rect fill="rgb(254, 236, 108)" height="55" width="80" x="442" y="278" /><rect fill="rgb(254, 236, 108)" height="55" width="80" x="442" y="336" /><rect fill="rgb(254, 236, 108)" height="55" width="80" x="442" y="394" /><rect fill="rgb(254, 236, 108)" height="55" width="80" x="525" y="162" /><rect fill="rgb(254, 236, 108)" height="55" width="80" x="525" y="220" /><rect fill="rgb(254, 236, 108)" height="55" width="80" x="525" y="278" /><rect fill="rgb(249, 204, 41)" height="55" width="80" x="525" y="336" /><rect fill="rgb(254, 236, 108)" height="55" width="80" x="525" y="394" /><rect fill="rgb(254, 236, 108)" height="55" width="80" x="608" y="162" /><rect fill="rgb(254, 236, 108)" height="55" width="80" x="608" y="220" /><rect fill="rgb(254, 236, 108)" height="55" width="80" x="608" y="278" /><rect fill="rgb(254, 236, 108)" height="55" width="80" x="608" y="336" /><rect fill="rgb(254, 236, 108)" height="55" width="80" x="608" y="394" /><rect fill="rgb(254, 236, 108)" height="55" width="80" x="691" y="162" /><rect fill="rgb(254, 236, 108)" height="55" width="80" x="691" y="220" /><rect fill="rgb(254, 236, 108)" height="55" width="80" x="691" y="278" /><rect fill="rgb(254, 236, 108)" height="55" width="80" x="691" y="336" /><rect fill="rgb(254, 236, 108)" height="55" width="80" x="691" y="394" /><rect fill="rgb(254, 236, 108)" height="55" width="80" x="774" y="162" /><rect fill="rgb(254, 236, 108)" height="55" width="80" x="774" y="220" /><rect fill="rgb(254, 236, 108)" height="55" width="80" x="774" y="278" /><rect fill="rgb(254, 236, 108)" height="55" width="80" x="774" y="336" /><rect fill="rgb(254, 236, 108)" height="55" width="80" x="774" y="394" /><rect fill="rgb(254, 236, 108)" height="55" width="80" x="857" y="162" /><rect fill="rgb(254, 236, 108)" height="55" width="80" x="857" y="220" /><rect fill="rgb(254, 236, 108)" height="55" width="80" x="857" y="278" /><rect fill="rgb(254, 236, 108)" height="55" width="80" x="857" y="336" /><rect fill="rgb(254, 236, 108)" height="55" width="80" x="857" y="394" /><text style="font-size:30" x="300" y="120">Porcentaje relativo de participación</text><rect fill="rgb(254, 236, 108)" height="30" width="50" x="325" y="525" /><text style="font-size:15" x="325" y="570">&lt; 16.67%</text><rect fill="rgb(249, 204, 41)" height="30" width="50" x="395" y="525" /><text style="font-size:15" x="395" y="570">&lt; 33.33%</text><rect fill="rgb(252, 154, 43)" height="30" width="50" x="465" y="525" /><text style="font-size:15" x="465" y="570">&lt; 50.0%</text><rect fill="rgb(232, 80, 4)" height="30" width="50" x="535" y="525" /><text style="font-size:15" x="535" y="570">&lt; 66.67%</text><rect fill="rgb(188,21,12)" height="30" width="50" x="605" y="525" /><text style="font-size:15" x="605" y="570">&lt; 83.33%</text><rect fill="rgb(166, 37, 16)" height="30" width="50" x="675" y="525" /><text style="font-size:15" x="675" y="570">&lt; 100.0%</text></svg>