<?xml version="1.0" encoding="utf-8" ?>
<svg baseProfile="full" height="800px" version="1.1" width="1200px" xmlns="http://www.w3.org/2000/svg" xmlns:ev="http://www.w3.org/2001/xml-events" xmlns:xlink="http://www.w3.org/1999/xlink"><defs /><line stroke="black" stroke-width="2" x1="120" x2="1000" y1="700" y2="700" /><text x="180" y="720">0.07</text><text x="240" y="720">0.14</text><text x="300" y="720">0.21</text><text x="360" y="720">0.28</text><text x="420" y="720">0.35</text><text x="480" y="720">0.42</text><text x="540" y="720">0.49</text><text x="600" y="720">0.56</text><text x="660" y="720">0.63</text><text x="720" y="720">0.7</text><text x="780" y="720">0.77</text><text x="840" y="720">0.84</text><text x="900" y="720">0.91</text><text x="960" y="720">0.98</text><text x="1020" y="705">HDI</text><line stroke="black" stroke-width="2" x1="120" x2="120" y1="700" y2="190" /><text x="70" y="650">4.92</text><text x="70" y="600">9.84</text><text x="70" y="550">14.76</text><text x="70" y="500">19.68</text><text x="70" y="450">24.6</text><text x="70" y="400">29.52</text><text x="70" y="350">34.44</text><text x="70" y="300">39.36</text><text x="70" y="250">44.28</text><text x="70" y="200">49.2</text><text x="100" y="180">Gini</text><line stroke="black" stroke-width="2" x1="120" x2="1000" y1="700" y2="700" /><text x="180" y="720">0.07</text><text x="240" y="720">0.14</text><text x="300" y="720">0.21</text><text x="360" y="720">0.28</text><text x="420" y="720">0.35</text><text x="480" y="720">0.42</text><text x="540" y="720">0.49</text><text x="600" y="720">0.56</text><text x="660" y="720">0.63</text><text x="720" y="720">0.7</text><text x="780" y="720">0.77</text><text x="840" y="720">0.84</text><text x="900" y="720">0.91</text><text x="960" y="720">0.98</text><text x="1020" y="705">HDI</text><line stroke="black" stroke-width="2" x1="120" x2="120" y1="700" y2="190" /><text x="70" y="650">4.92</text><text x="70" y="600">9.84</text><text x="70" y="550">14.76</text><text x="70" y="500">19.68</text><text x="70" y="450">24.6</text><text x="70" y="400">29.52</text><text x="70" y="350">34.44</text><text x="70" y="300">39.36</text><text x="70" y="250">44.28</text><text x="70" y="200">49.2</text><text x="100" y="180">Gini</text><circle cx="809.1428571428571" cy="602.439024390244" fill="black" r="3" stroke="green" stroke-width="10" /><circle cx="908.5714285714286" cy="611.5853658536586" fill="black" r="3" stroke="green" stroke-width="10" /><circle cx="752.5714285714286" cy="475.4065040650406" fill="black" r="3" stroke="green" stroke-width="10" /><circle cx="908.5714285714286" cy="568.9024390243902" fill="black" r="3" stroke="green" stroke-width="10" /><circle cx="766.2857142857142" cy="445.9349593495935" fill="black" r="3" stroke="green" stroke-width="10" /><circle cx="924.8571428571428" cy="618.69918699187" fill="black" r="3" stroke="green" stroke-width="10" /><circle cx="654.8571428571429" cy="430.6910569105691" fill="black" r="3" stroke="green" stroke-width="10" /><circle cx="828.8571428571428" cy="545.5284552845528" fill="black" r="3" stroke="green" stroke-width="10" /><circle cx="800.5714285714286" cy="597.3577235772358" fill="black" r="3" stroke="green" stroke-width="10" /><circle cx="773.1428571428571" cy="472.3577235772358" fill="black" r="3" stroke="green" stroke-width="10" /><circle cx="710.5714285714286" cy="515.040650406504" fill="black" r="3" stroke="green" stroke-width="10" /><circle cx="783.4285714285714" cy="379.8780487804878" fill="black" r="3" stroke="green" stroke-width="10" /><circle cx="750.0" cy="568.9024390243902" fill="black" r="3" stroke="green" stroke-width="10" /><circle cx="754.2857142857142" cy="482.520325203252" fill="black" r="3" stroke="green" stroke-width="10" /><circle cx="459.42857142857144" cy="297.5609756097561" fill="black" r="3" stroke="green" stroke-width="10" /><circle cx="422.57142857142856" cy="318.9024390243903" fill="black" r="3" stroke="green" stroke-width="10" /><circle cx="576.8571428571429" cy="328.0487804878049" fill="black" r="3" stroke="green" stroke-width="10" /><circle cx="498.85714285714283" cy="367.6829268292683" fill="black" r="3" stroke="green" stroke-width="10" /><circle cx="690.8571428571429" cy="374.7967479674797" fill="black" r="3" stroke="green" stroke-width="10" /><circle cx="743.1428571428571" cy="459.1463414634146" fill="black" r="3" stroke="green" stroke-width="10" /><circle cx="504.0" cy="440.8536585365854" fill="black" r="3" stroke="green" stroke-width="10" /><circle cx="697.7142857142858" cy="407.3170731707317" fill="black" r="3" stroke="green" stroke-width="10" /><circle cx="559.7142857142858" cy="375.81300813008136" fill="black" r="3" stroke="green" stroke-width="10" /><circle cx="712.2857142857142" cy="412.3983739837398" fill="black" r="3" stroke="green" stroke-width="10" /><circle cx="575.1428571428571" cy="441.869918699187" fill="black" r="3" stroke="green" stroke-width="10" /><circle cx="571.7142857142858" cy="318.9024390243903" fill="black" r="3" stroke="green" stroke-width="10" /><circle cx="777.4285714285714" cy="505.8943089430894" fill="black" r="3" stroke="green" stroke-width="10" /><circle cx="591.4285714285714" cy="399.1869918699187" fill="black" r="3" stroke="green" stroke-width="10" /><circle cx="668.5714285714286" cy="360.56910569105696" fill="black" r="3" stroke="green" stroke-width="10" /><circle cx="478.2857142857143" cy="365.6504065040651" fill="black" r="3" stroke="green" stroke-width="10" /><circle cx="777.4285714285714" cy="539.4308943089432" fill="black" r="3" stroke="green" stroke-width="10" /><circle cx="846.0" cy="526.219512195122" fill="black" r="3" stroke="green" stroke-width="10" /><circle cx="616.2857142857142" cy="347.35772357723573" fill="black" r="3" stroke="green" stroke-width="10" /><circle cx="530.5714285714286" cy="391.0569105691057" fill="black" r="3" stroke="green" stroke-width="10" /><circle cx="421.71428571428567" cy="261.9918699186992" fill="black" r="3" stroke="green" stroke-width="10" /><circle cx="756.8571428571428" cy="626.829268292683" fill="black" r="3" stroke="green" stroke-width="10" /><circle cx="558.8571428571429" cy="427.6422764227642" fill="black" r="3" stroke="green" stroke-width="10" /><circle cx="718.2857142857142" cy="332.1138211382114" fill="black" r="3" stroke="green" stroke-width="10" /><circle cx="595.7142857142858" cy="401.219512195122" fill="black" r="3" stroke="green" stroke-width="10" /><circle cx="888.8571428571429" cy="605.4878048780488" fill="black" r="3" stroke="green" stroke-width="10" /><circle cx="533.1428571428571" cy="367.6829268292683" fill="black" r="3" stroke="green" stroke-width="10" /><circle cx="754.2857142857142" cy="494.7154471544716" fill="black" r="3" stroke="green" stroke-width="10" /><circle cx="877.7142857142857" cy="597.3577235772358" fill="black" r="3" stroke="green" stroke-width="10" /><circle cx="713.1428571428571" cy="440.8536585365854" fill="black" r="3" stroke="green" stroke-width="10" /><circle cx="564.0" cy="370.7317073170732" fill="black" r="3" stroke="green" stroke-width="10" /><circle cx="902.5714285714286" cy="632.9268292682927" fill="black" r="3" stroke="green" stroke-width="10" /><circle cx="720.8571428571428" cy="544.5121951219512" fill="black" r="3" stroke="green" stroke-width="10" /><circle cx="674.5714285714286" cy="412.3983739837398" fill="black" r="3" stroke="green" stroke-width="10" /><circle cx="676.2857142857143" cy="476.4227642276423" fill="black" r="3" stroke="green" stroke-width="10" /><circle cx="713.9999999999999" cy="461.1788617886179" fill="black" r="3" stroke="green" stroke-width="10" /><circle cx="562.2857142857142" cy="414.4308943089431" fill="black" r="3" stroke="green" stroke-width="10" /><circle cx="894.0" cy="576.0162601626016" fill="black" r="3" stroke="green" stroke-width="10" /><circle cx="913.7142857142858" cy="628.8617886178862" fill="black" r="3" stroke="green" stroke-width="10" /><circle cx="704.5714285714286" cy="515.040650406504" fill="black" r="3" stroke="green" stroke-width="10" /><circle cx="887.1428571428571" cy="642.0731707317074" fill="black" r="3" stroke="green" stroke-width="10" /><circle cx="933.4285714285713" cy="645.1219512195122" fill="black" r="3" stroke="green" stroke-width="10" /><circle cx="852.8571428571428" cy="605.4878048780488" fill="black" r="3" stroke="green" stroke-width="10" /><circle cx="880.2857142857142" cy="586.178861788618" fill="black" r="3" stroke="green" stroke-width="10" /><circle cx="753.4285714285714" cy="494.7154471544716" fill="black" r="3" stroke="green" stroke-width="10" /><circle cx="464.57142857142856" cy="361.5853658536586" fill="black" r="3" stroke="green" stroke-width="10" /><circle cx="717.4285714285713" cy="458.130081300813" fill="black" r="3" stroke="green" stroke-width="10" /><circle cx="627.4285714285713" cy="302.6422764227642" fill="black" r="3" stroke="green" stroke-width="10" /><circle cx="900.0" cy="620.7317073170732" fill="black" r="3" stroke="green" stroke-width="10" /><circle cx="542.5714285714286" cy="386.9918699186992" fill="black" r="3" stroke="green" stroke-width="10" /><circle cx="616.2857142857142" cy="369.7154471544716" fill="black" r="3" stroke="green" stroke-width="10" /><circle cx="807.4285714285714" cy="590.2439024390244" fill="black" r="3" stroke="green" stroke-width="10" /><circle cx="666.8571428571429" cy="511.9918699186992" fill="black" r="3" stroke="green" stroke-width="10" /><circle cx="802.2857142857143" cy="634.959349593496" fill="black" r="3" stroke="green" stroke-width="10" /><circle cx="689.1428571428571" cy="577.0325203252032" fill="black" r="3" stroke="green" stroke-width="10" /><circle cx="543.4285714285713" cy="369.7154471544716" fill="black" r="3" stroke="green" stroke-width="10" /><circle cx="579.4285714285714" cy="482.520325203252" fill="black" r="3" stroke="green" stroke-width="10" /><circle cx="602.5714285714284" cy="472.3577235772358" fill="black" r="3" stroke="green" stroke-width="10" /><circle cx="801.4285714285714" cy="543.4959349593496" fill="black" r="3" stroke="green" stroke-width="10" /><circle cx="741.4285714285713" cy="463.2113821138212" fill="black" r="3" stroke="green" stroke-width="10" /><circle cx="741.4285714285713" cy="477.43902439024396" fill="black" r="3" stroke="green" stroke-width="10" /><circle cx="616.2857142857142" cy="410.3658536585366" fill="black" r="3" stroke="green" stroke-width="10" /><circle cx="598.2857142857143" cy="437.8048780487805" fill="black" r="3" stroke="green" stroke-width="10" /><circle cx="657.4285714285714" cy="548.5772357723578" fill="black" r="3" stroke="green" stroke-width="10" /><circle cx="862.2857142857142" cy="577.0325203252032" fill="black" r="3" stroke="green" stroke-width="10" /><circle cx="672.8571428571429" cy="441.869918699187" fill="black" r="3" stroke="green" stroke-width="10" /><circle cx="528.0" cy="382.9268292682927" fill="black" r="3" stroke="green" stroke-width="10" /><circle cx="535.7142857142857" cy="322.9674796747968" fill="black" r="3" stroke="green" stroke-width="10" /><circle cx="655.7142857142857" cy="410.3658536585366" fill="black" r="3" stroke="green" stroke-width="10" /><circle cx="486.0" cy="365.6504065040651" fill="black" r="3" stroke="green" stroke-width="10" /><circle cx="800.5714285714286" cy="593.2926829268292" fill="black" r="3" stroke="green" stroke-width="10" /><circle cx="668.5714285714286" cy="404.2682926829268" fill="black" r="3" stroke="green" stroke-width="10" /><circle cx="909.4285714285714" cy="642.0731707317074" fill="black" r="3" stroke="green" stroke-width="10" /><circle cx="836.5714285714286" cy="622.7642276422764" fill="black" r="3" stroke="green" stroke-width="10" /><circle cx="842.5714285714286" cy="597.3577235772358" fill="black" r="3" stroke="green" stroke-width="10" /><circle cx="756.0" cy="533.3333333333334" fill="black" r="3" stroke="green" stroke-width="10" /><circle cx="770.5714285714286" cy="568.9024390243902" fill="black" r="3" stroke="green" stroke-width="10" /><circle cx="885.4285714285714" cy="613.6178861788618" fill="black" r="3" stroke="green" stroke-width="10" /><circle cx="795.4285714285714" cy="486.5853658536586" fill="black" r="3" stroke="green" stroke-width="10" /><circle cx="480.0" cy="328.0487804878049" fill="black" r="3" stroke="green" stroke-width="10" /><circle cx="911.1428571428571" cy="621.7479674796748" fill="black" r="3" stroke="green" stroke-width="10" /><circle cx="779.1428571428571" cy="576.0162601626016" fill="black" r="3" stroke="green" stroke-width="10" /><circle cx="776.5714285714286" cy="583.130081300813" fill="black" r="3" stroke="green" stroke-width="10" /><circle cx="846.8571428571428" cy="596.3414634146342" fill="black" r="3" stroke="green" stroke-width="10" /><circle cx="831.4285714285713" cy="595.3252032520326" fill="black" r="3" stroke="green" stroke-width="10" /><circle cx="537.4285714285713" cy="378.8617886178862" fill="black" r="3" stroke="green" stroke-width="10" /><circle cx="828.8571428571428" cy="609.5528455284552" fill="black" r="3" stroke="green" stroke-width="10" /><circle cx="762.8571428571429" cy="566.869918699187" fill="black" r="3" stroke="green" stroke-width="10" /><circle cx="785.1428571428571" cy="515.040650406504" fill="black" r="3" stroke="green" stroke-width="10" /><circle cx="844.2857142857142" cy="639.0243902439024" fill="black" r="3" stroke="green" stroke-width="10" /><circle cx="738.8571428571428" cy="480.4878048780488" fill="black" r="3" stroke="green" stroke-width="10" /><circle cx="861.4285714285714" cy="612.6016260162602" fill="black" r="3" stroke="green" stroke-width="10" /><circle cx="912.8571428571429" cy="628.8617886178862" fill="black" r="3" stroke="green" stroke-width="10" /><circle cx="912.0" cy="630.8943089430894" fill="black" r="3" stroke="green" stroke-width="10" /><circle cx="924.8571428571428" cy="614.6341463414634" fill="black" r="3" stroke="green" stroke-width="10" /><circle cx="640.2857142857142" cy="411.38211382113826" fill="black" r="3" stroke="green" stroke-width="10" /><circle cx="483.4285714285714" cy="302.6422764227642" fill="black" r="3" stroke="green" stroke-width="10" /><circle cx="719.1428571428571" cy="597.3577235772358" fill="black" r="3" stroke="green" stroke-width="10" /><circle cx="888.0" cy="615.650406504065" fill="black" r="3" stroke="green" stroke-width="10" /><circle cx="546.0" cy="345.32520325203257" fill="black" r="3" stroke="green" stroke-width="10" /><circle cx="756.8571428571428" cy="606.5040650406504" fill="black" r="3" stroke="green" stroke-width="10" /><circle cx="561.4285714285714" cy="458.130081300813" fill="black" r="3" stroke="green" stroke-width="10" /><circle cx="774.8571428571429" cy="563.821138211382" fill="black" r="3" stroke="green" stroke-width="10" /><circle cx="466.2857142857143" cy="389.0243902439024" fill="black" r="3" stroke="green" stroke-width="10" /><circle cx="542.5714285714286" cy="301.6260162601626" fill="black" r="3" stroke="green" stroke-width="10" /><circle cx="546.8571428571429" cy="376.8292682926829" fill="black" r="3" stroke="green" stroke-width="10" /><circle cx="761.1428571428571" cy="536.3821138211382" fill="black" r="3" stroke="green" stroke-width="10" /><circle cx="525.4285714285713" cy="357.520325203252" fill="black" r="3" stroke="green" stroke-width="10" /><circle cx="725.1428571428571" cy="478.45528455284557" fill="black" r="3" stroke="green" stroke-width="10" /><circle cx="702.8571428571429" cy="476.4227642276423" fill="black" r="3" stroke="green" stroke-width="10" /><circle cx="890.5714285714286" cy="568.9024390243902" fill="black" r="3" stroke="green" stroke-width="10" /><circle cx="882.8571428571429" cy="641.0569105691056" fill="black" r="3" stroke="green" stroke-width="10" /><circle cx="750.8571428571428" cy="546.5447154471544" fill="black" r="3" stroke="green" stroke-width="10" /><circle cx="583.7142857142858" cy="363.6178861788618" fill="black" r="3" stroke="green" stroke-width="10" /><circle cx="798.8571428571429" cy="557.7235772357724" fill="black" r="3" stroke="green" stroke-width="10" /><circle cx="811.7142857142858" cy="611.5853658536586" fill="black" r="3" stroke="green" stroke-width="10" /><circle cx="631.7142857142857" cy="525.2032520325204" fill="black" r="3" stroke="green" stroke-width="10" /><circle cx="745.7142857142857" cy="538.4146341463414" fill="black" r="3" stroke="green" stroke-width="10" /><circle cx="507.42857142857144" cy="305.69105691056916" fill="black" r="3" stroke="green" stroke-width="10" /><circle cx="774.0" cy="492.68292682926835" fill="black" r="3" stroke="green" stroke-width="10" /><circle cx="853.7142857142857" cy="590.2439024390244" fill="black" r="3" stroke="green" stroke-width="10" /><circle cx="788.5714285714286" cy="546.5447154471544" fill="black" r="3" stroke="green" stroke-width="10" /><circle cx="889.7142857142857" cy="620.7317073170732" fill="black" r="3" stroke="green" stroke-width="10" /><circle cx="789.4285714285714" cy="554.6747967479675" fill="black" r="3" stroke="green" stroke-width="10" /><circle cx="546.8571428571429" cy="244.71544715447158" fill="black" r="3" stroke="green" stroke-width="10" /><circle cx="624.0" cy="374.7967479674797" fill="black" r="3" stroke="green" stroke-width="10" /><circle cx="742.2857142857142" cy="480.4878048780488" fill="black" r="3" stroke="green" stroke-width="10" /><circle cx="666.8571428571429" cy="345.32520325203257" fill="black" r="3" stroke="green" stroke-width="10" /><circle cx="853.7142857142857" cy="618.69918699187" fill="black" r="3" stroke="green" stroke-width="10" /><circle cx="720.8571428571428" cy="462.19512195121956" fill="black" r="3" stroke="green" stroke-width="10" /></svg>