<?xml version="1.0" encoding="utf-8" ?>
<svg baseProfile="full" height="800px" version="1.1" width="1300px" xmlns="http://www.w3.org/2000/svg" xmlns:ev="http://www.w3.org/2001/xml-events" xmlns:xlink="http://www.w3.org/1999/xlink"><defs /><line stroke="black" stroke-width="2" x1="120" x2="1000" y1="700" y2="700" /><text x="180" y="720">0.07</text><text x="240" y="720">0.14</text><text x="300" y="720">0.21</text><text x="360" y="720">0.28</text><text x="420" y="720">0.35</text><text x="480" y="720">0.42</text><text x="540" y="720">0.49</text><text x="600" y="720">0.56</text><text x="660" y="720">0.63</text><text x="720" y="720">0.7</text><text x="780" y="720">0.77</text><text x="840" y="720">0.84</text><text x="900" y="720">0.91</text><text x="960" y="720">0.98</text><text x="1020" y="705">Hdi</text><line stroke="black" stroke-width="2" x1="120" x2="120" y1="700" y2="190" /><text x="70" y="650">4.92</text><text x="70" y="600">9.84</text><text x="70" y="550">14.76</text><text x="70" y="500">19.68</text><text x="70" y="450">24.6</text><text x="70" y="400">29.52</text><text x="70" y="350">34.44</text><text x="70" y="300">39.36</text><text x="70" y="250">44.28</text><text x="70" y="200">49.2</text><text x="100" y="180">Gini</text><circle cx="809.1428571428571" cy="602.439024390244" fill="rgb(222,140,89)" r="93.3170035092247" stroke="black" stroke-width="1" /><circle cx="908.5714285714286" cy="611.5853658536586" fill="rgb(222,106,89)" r="71.31024242037279" stroke="black" stroke-width="1" /><circle cx="752.5714285714286" cy="475.4065040650406" fill="rgb(222,177,89)" r="70.31155411282552" stroke="black" stroke-width="1" /><circle cx="908.5714285714286" cy="568.9024390243902" fill="rgb(222,106,89)" r="69.09002153532805" stroke="black" stroke-width="1" /><circle cx="766.2857142857142" cy="445.9349593495935" fill="rgb(222,106,89)" r="65.85624130832467" stroke="black" stroke-width="1" /><circle cx="924.8571428571428" cy="618.69918699187" fill="rgb(43,135,134)" r="62.59006034779626" stroke="black" stroke-width="1" /><circle cx="654.8571428571429" cy="430.6910569105691" fill="rgb(222,177,89)" r="40.91889341062817" stroke="black" stroke-width="1" /><circle cx="828.8571428571428" cy="545.5284552845528" fill="rgb(222,106,89)" r="37.63038788097538" stroke="black" stroke-width="1" /><circle cx="800.5714285714286" cy="597.3577235772358" fill="rgb(222,177,89)" r="37.25292168648706" stroke="black" stroke-width="1" /><circle cx="773.1428571428571" cy="472.3577235772358" fill="rgb(222,106,89)" r="31.62985887220577" stroke="black" stroke-width="1" /><circle cx="710.5714285714286" cy="515.040650406504" fill="rgb(222,177,89)" r="31.144646836827054" stroke="black" stroke-width="1" /><circle cx="783.4285714285714" cy="379.8780487804878" fill="rgb(222,177,89)" r="28.97272545988569" stroke="black" stroke-width="1" /><circle cx="750.0" cy="568.9024390243902" fill="rgb(222,177,89)" r="28.22400895915189" stroke="black" stroke-width="1" /><circle cx="754.2857142857142" cy="482.520325203252" fill="rgb(222,106,89)" r="25.584275129276943" stroke="black" stroke-width="1" /><circle cx="459.42857142857144" cy="297.5609756097561" fill="rgb(77,77,77)" r="25.57216905497028" stroke="black" stroke-width="1" /><circle cx="422.57142857142856" cy="318.9024390243903" fill="rgb(77,77,77)" r="25.402318816828128" stroke="black" stroke-width="1" /><circle cx="576.8571428571429" cy="328.0487804878049" fill="rgb(77,77,77)" r="25.197997860316818" stroke="black" stroke-width="1" /><circle cx="498.85714285714283" cy="367.6829268292683" fill="rgb(77,77,77)" r="25.132142745609187" stroke="black" stroke-width="1" /><circle cx="690.8571428571429" cy="374.7967479674797" fill="rgb(77,77,77)" r="24.93730213142383" stroke="black" stroke-width="1" /><circle cx="743.1428571428571" cy="459.1463414634146" fill="rgb(222,106,89)" r="24.114051536166894" stroke="black" stroke-width="1" /><circle cx="504.0" cy="440.8536585365854" fill="rgb(77,77,77)" r="23.715298262944447" stroke="black" stroke-width="1" /><circle cx="697.7142857142858" cy="407.3170731707317" fill="rgb(222,106,89)" r="23.65380960686629" stroke="black" stroke-width="1" /><circle cx="559.7142857142858" cy="375.81300813008136" fill="rgb(77,77,77)" r="22.911377075667296" stroke="black" stroke-width="1" /><circle cx="712.2857142857142" cy="412.3983739837398" fill="rgb(77,77,77)" r="22.595211719475113" stroke="black" stroke-width="1" /><circle cx="575.1428571428571" cy="441.869918699187" fill="rgb(77,77,77)" r="21.93920820462872" stroke="black" stroke-width="1" /><circle cx="571.7142857142858" cy="318.9024390243903" fill="rgb(77,77,77)" r="21.690347602202337" stroke="black" stroke-width="1" /><circle cx="777.4285714285714" cy="505.8943089430894" fill="rgb(222,106,89)" r="21.60420342965522" stroke="black" stroke-width="1" /><circle cx="591.4285714285714" cy="399.1869918699187" fill="rgb(222,177,89)" r="21.193255845919257" stroke="black" stroke-width="1" /><circle cx="668.5714285714286" cy="360.56910569105696" fill="rgb(77,77,77)" r="20.505664258701998" stroke="black" stroke-width="1" /><circle cx="478.2857142857143" cy="365.6504065040651" fill="rgb(77,77,77)" r="20.20510912283583" stroke="black" stroke-width="1" /><circle cx="777.4285714285714" cy="539.4308943089432" fill="rgb(222,177,89)" r="19.976607561363103" stroke="black" stroke-width="1" /><circle cx="846.0" cy="526.219512195122" fill="rgb(222,106,89)" r="19.623444817394788" stroke="black" stroke-width="1" /><circle cx="616.2857142857142" cy="347.35772357723573" fill="rgb(77,77,77)" r="19.578103690012682" stroke="black" stroke-width="1" /><circle cx="530.5714285714286" cy="391.0569105691057" fill="rgb(222,177,89)" r="18.225751323472128" stroke="black" stroke-width="1" /><circle cx="421.71428571428567" cy="261.9918699186992" fill="rgb(77,77,77)" r="17.812443566645094" stroke="black" stroke-width="1" /><circle cx="756.8571428571428" cy="626.829268292683" fill="rgb(222,140,89)" r="17.53168634498884" stroke="black" stroke-width="1" /><circle cx="558.8571428571429" cy="427.6422764227642" fill="rgb(77,77,77)" r="17.290966607808535" stroke="black" stroke-width="1" /><circle cx="718.2857142857142" cy="332.1138211382114" fill="rgb(77,77,77)" r="17.21656661516302" stroke="black" stroke-width="1" /><circle cx="595.7142857142858" cy="401.219512195122" fill="rgb(77,77,77)" r="17.19239616643721" stroke="black" stroke-width="1" /><circle cx="888.8571428571429" cy="605.4878048780488" fill="rgb(222,140,89)" r="16.76233743405335" stroke="black" stroke-width="1" /><circle cx="533.1428571428571" cy="367.6829268292683" fill="rgb(222,177,89)" r="16.39792347774235" stroke="black" stroke-width="1" /><circle cx="754.2857142857142" cy="494.7154471544716" fill="rgb(222,177,89)" r="16.165700420266443" stroke="black" stroke-width="1" /><circle cx="877.7142857142857" cy="597.3577235772358" fill="rgb(222,140,89)" r="16.053024932636646" stroke="black" stroke-width="1" /><circle cx="713.1428571428571" cy="440.8536585365854" fill="rgb(222,177,89)" r="15.766651157239865" stroke="black" stroke-width="1" /><circle cx="564.0" cy="370.7317073170732" fill="rgb(77,77,77)" r="15.56086830004001" stroke="black" stroke-width="1" /><circle cx="902.5714285714286" cy="632.9268292682927" fill="rgb(222,140,89)" r="15.143756479771062" stroke="black" stroke-width="1" /><circle cx="720.8571428571428" cy="544.5121951219512" fill="rgb(222,177,89)" r="15.094997480152315" stroke="black" stroke-width="1" /><circle cx="674.5714285714286" cy="412.3983739837398" fill="rgb(77,77,77)" r="15.080651427594061" stroke="black" stroke-width="1" /><circle cx="676.2857142857143" cy="476.4227642276423" fill="rgb(222,177,89)" r="14.940984405716812" stroke="black" stroke-width="1" /><circle cx="713.9999999999999" cy="461.1788617886179" fill="rgb(222,106,89)" r="14.392952877017514" stroke="black" stroke-width="1" /><circle cx="562.2857142857142" cy="414.4308943089431" fill="rgb(77,77,77)" r="14.107122524201424" stroke="black" stroke-width="1" /><circle cx="894.0" cy="576.0162601626016" fill="rgb(222,177,89)" r="13.87365014899482" stroke="black" stroke-width="1" /><circle cx="913.7142857142858" cy="628.8617886178862" fill="rgb(222,140,89)" r="13.486165752778705" stroke="black" stroke-width="1" /><circle cx="704.5714285714286" cy="515.040650406504" fill="rgb(222,177,89)" r="13.204504956396013" stroke="black" stroke-width="1" /><circle cx="887.1428571428571" cy="642.0731707317074" fill="rgb(222,140,89)" r="13.128515829101973" stroke="black" stroke-width="1" /><circle cx="933.4285714285713" cy="645.1219512195122" fill="rgb(222,140,89)" r="12.841767963397176" stroke="black" stroke-width="1" /><circle cx="852.8571428571428" cy="605.4878048780488" fill="rgb(222,140,89)" r="12.619275218620853" stroke="black" stroke-width="1" /><circle cx="880.2857142857142" cy="586.178861788618" fill="rgb(222,140,89)" r="12.388267214623925" stroke="black" stroke-width="1" /><circle cx="753.4285714285714" cy="494.7154471544716" fill="rgb(222,106,89)" r="11.874087902723765" stroke="black" stroke-width="1" /><circle cx="464.57142857142856" cy="361.5853658536586" fill="rgb(77,77,77)" r="11.790714631568743" stroke="black" stroke-width="1" /><circle cx="717.4285714285713" cy="458.130081300813" fill="rgb(77,77,77)" r="11.675709528078738" stroke="black" stroke-width="1" /><circle cx="627.4285714285713" cy="302.6422764227642" fill="rgb(77,77,77)" r="11.189903569735584" stroke="black" stroke-width="1" /><circle cx="900.0" cy="620.7317073170732" fill="rgb(222,140,89)" r="11.122407750413954" stroke="black" stroke-width="1" /><circle cx="542.5714285714286" cy="386.9918699186992" fill="rgb(77,77,77)" r="11.091456388243676" stroke="black" stroke-width="1" /><circle cx="616.2857142857142" cy="369.7154471544716" fill="rgb(77,77,77)" r="11.021971662535023" stroke="black" stroke-width="1" /><circle cx="807.4285714285714" cy="590.2439024390244" fill="rgb(222,140,89)" r="11.01869045411405" stroke="black" stroke-width="1" /><circle cx="666.8571428571429" cy="511.9918699186992" fill="rgb(222,106,89)" r="10.463403493933955" stroke="black" stroke-width="1" /><circle cx="802.2857142857143" cy="634.959349593496" fill="rgb(222,140,89)" r="10.28250026962353" stroke="black" stroke-width="1" /><circle cx="689.1428571428571" cy="577.0325203252032" fill="rgb(222,177,89)" r="10.091293677410057" stroke="black" stroke-width="1" /><circle cx="543.4285714285713" cy="369.7154471544716" fill="rgb(77,77,77)" r="10.009480100772281" stroke="black" stroke-width="1" /><circle cx="579.4285714285714" cy="482.520325203252" fill="rgb(222,177,89)" r="9.711405642728707" stroke="black" stroke-width="1" /><circle cx="602.5714285714284" cy="472.3577235772358" fill="rgb(222,177,89)" r="9.602102290251446" stroke="black" stroke-width="1" /><circle cx="801.4285714285714" cy="543.4959349593496" fill="rgb(222,106,89)" r="9.602075770198555" stroke="black" stroke-width="1" /><circle cx="741.4285714285713" cy="463.2113821138212" fill="rgb(222,106,89)" r="9.134157918900119" stroke="black" stroke-width="1" /><circle cx="741.4285714285713" cy="477.43902439024396" fill="rgb(77,77,77)" r="9.128301526880453" stroke="black" stroke-width="1" /><circle cx="616.2857142857142" cy="410.3658536585366" fill="rgb(222,177,89)" r="8.66930123173876" stroke="black" stroke-width="1" /><circle cx="598.2857142857143" cy="437.8048780487805" fill="rgb(222,177,89)" r="8.657867391769546" stroke="black" stroke-width="1" /><circle cx="657.4285714285714" cy="548.5772357723578" fill="rgb(222,177,89)" r="8.5369919491962" stroke="black" stroke-width="1" /><circle cx="862.2857142857142" cy="577.0325203252032" fill="rgb(222,140,89)" r="8.198899621524687" stroke="black" stroke-width="1" /><circle cx="672.8571428571429" cy="441.869918699187" fill="rgb(222,106,89)" r="8.14852279043895" stroke="black" stroke-width="1" /><circle cx="528.0" cy="382.9268292682927" fill="rgb(77,77,77)" r="7.768101807221659" stroke="black" stroke-width="1" /><circle cx="535.7142857142857" cy="322.9674796747968" fill="rgb(77,77,77)" r="7.5735007495124345" stroke="black" stroke-width="1" /><circle cx="655.7142857142857" cy="410.3658536585366" fill="rgb(222,106,89)" r="7.569128427140022" stroke="black" stroke-width="1" /><circle cx="486.0" cy="365.6504065040651" fill="rgb(77,77,77)" r="7.531252614475505" stroke="black" stroke-width="1" /><circle cx="800.5714285714286" cy="593.2926829268292" fill="rgb(222,140,89)" r="7.514666392613583" stroke="black" stroke-width="1" /><circle cx="668.5714285714286" cy="404.2682926829268" fill="rgb(222,106,89)" r="7.44692636694273" stroke="black" stroke-width="1" /><circle cx="909.4285714285714" cy="642.0731707317074" fill="rgb(222,140,89)" r="7.242752877400188" stroke="black" stroke-width="1" /><circle cx="836.5714285714286" cy="622.7642276422764" fill="rgb(222,140,89)" r="6.883223906502613" stroke="black" stroke-width="1" /><circle cx="842.5714285714286" cy="597.3577235772358" fill="rgb(222,140,89)" r="6.848434264112086" stroke="black" stroke-width="1" /><circle cx="756.0" cy="533.3333333333334" fill="rgb(222,177,89)" r="6.745480484168016" stroke="black" stroke-width="1" /><circle cx="770.5714285714286" cy="568.9024390243902" fill="rgb(222,177,89)" r="6.641160879667503" stroke="black" stroke-width="1" /><circle cx="885.4285714285714" cy="613.6178861788618" fill="rgb(222,140,89)" r="6.535682790848492" stroke="black" stroke-width="1" /><circle cx="795.4285714285714" cy="486.5853658536586" fill="rgb(222,106,89)" r="6.197544892787523" stroke="black" stroke-width="1" /><circle cx="480.0" cy="328.0487804878049" fill="rgb(77,77,77)" r="6.044574590136201" stroke="black" stroke-width="1" /><circle cx="911.1428571428571" cy="621.7479674796748" fill="rgb(222,140,89)" r="5.982453093077257" stroke="black" stroke-width="1" /><circle cx="779.1428571428571" cy="576.0162601626016" fill="rgb(222,177,89)" r="5.958012966351813" stroke="black" stroke-width="1" /><circle cx="776.5714285714286" cy="583.130081300813" fill="rgb(222,177,89)" r="5.780562136334978" stroke="black" stroke-width="1" /><circle cx="846.8571428571428" cy="596.3414634146342" fill="rgb(222,140,89)" r="5.766889708368147" stroke="black" stroke-width="1" /><circle cx="831.4285714285713" cy="595.3252032520326" fill="rgb(222,140,89)" r="5.734076098851753" stroke="black" stroke-width="1" /><circle cx="537.4285714285713" cy="378.8617886178862" fill="rgb(77,77,77)" r="5.377765615858922" stroke="black" stroke-width="1" /><circle cx="828.8571428571428" cy="609.5528455284552" fill="rgb(222,140,89)" r="5.368713767551472" stroke="black" stroke-width="1" /><circle cx="762.8571428571429" cy="566.869918699187" fill="rgb(222,140,89)" r="5.106909979482425" stroke="black" stroke-width="1" /><circle cx="785.1428571428571" cy="515.040650406504" fill="rgb(222,106,89)" r="5.101471973302091" stroke="black" stroke-width="1" /><circle cx="844.2857142857142" cy="639.0243902439024" fill="rgb(222,140,89)" r="4.997433243383174" stroke="black" stroke-width="1" /><circle cx="738.8571428571428" cy="480.4878048780488" fill="rgb(222,106,89)" r="4.978748512700962" stroke="black" stroke-width="1" /><circle cx="861.4285714285714" cy="612.6016260162602" fill="rgb(222,140,89)" r="4.799366828644679" stroke="black" stroke-width="1" /><circle cx="912.8571428571429" cy="628.8617886178862" fill="rgb(222,140,89)" r="4.6848259280710565" stroke="black" stroke-width="1" /><circle cx="912.0" cy="630.8943089430894" fill="rgb(222,140,89)" r="4.616712031182649" stroke="black" stroke-width="1" /><circle cx="924.8571428571428" cy="614.6341463414634" fill="rgb(222,140,89)" r="4.585386411845635" stroke="black" stroke-width="1" /><circle cx="640.2857142857142" cy="411.38211382113826" fill="rgb(222,177,89)" r="4.421979605586703" stroke="black" stroke-width="1" /><circle cx="483.4285714285714" cy="302.6422764227642" fill="rgb(77,77,77)" r="4.289325287434272" stroke="black" stroke-width="1" /><circle cx="719.1428571428571" cy="597.3577235772358" fill="rgb(222,140,89)" r="4.151822040073795" stroke="black" stroke-width="1" /><circle cx="888.0" cy="615.650406504065" fill="rgb(222,140,89)" r="3.943067679950475" stroke="black" stroke-width="1" /><circle cx="546.0" cy="345.32520325203257" fill="rgb(77,77,77)" r="3.931879264699559" stroke="black" stroke-width="1" /><circle cx="756.8571428571428" cy="606.5040650406504" fill="rgb(222,177,89)" r="3.8920413039461925" stroke="black" stroke-width="1" /><circle cx="561.4285714285714" cy="458.130081300813" fill="rgb(43,135,134)" r="3.8362236579567286" stroke="black" stroke-width="1" /><circle cx="774.8571428571429" cy="563.821138211382" fill="rgb(222,140,89)" r="3.8263868300027615" stroke="black" stroke-width="1" /><circle cx="466.2857142857143" cy="389.0243902439024" fill="rgb(77,77,77)" r="3.765068365284143" stroke="black" stroke-width="1" /><circle cx="542.5714285714286" cy="301.6260162601626" fill="rgb(222,106,89)" r="3.759382787980004" stroke="black" stroke-width="1" /><circle cx="546.8571428571429" cy="376.8292682926829" fill="rgb(77,77,77)" r="3.662490034347382" stroke="black" stroke-width="1" /><circle cx="761.1428571428571" cy="536.3821138211382" fill="rgb(222,140,89)" r="3.6187737378164577" stroke="black" stroke-width="1" /><circle cx="525.4285714285713" cy="357.520325203252" fill="rgb(77,77,77)" r="3.437391885593249" stroke="black" stroke-width="1" /><circle cx="725.1428571428571" cy="478.45528455284557" fill="rgb(222,106,89)" r="3.420012829472296" stroke="black" stroke-width="1" /><circle cx="702.8571428571429" cy="476.4227642276423" fill="rgb(222,106,89)" r="3.2735444558320914" stroke="black" stroke-width="1" /><circle cx="890.5714285714286" cy="568.9024390243902" fill="rgb(222,177,89)" r="3.252395138610887" stroke="black" stroke-width="1" /><circle cx="882.8571428571429" cy="641.0569105691056" fill="rgb(222,140,89)" r="3.2132466628266156" stroke="black" stroke-width="1" /><circle cx="750.8571428571428" cy="546.5447154471544" fill="rgb(43,135,134)" r="3.050549652859359" stroke="black" stroke-width="1" /><circle cx="583.7142857142858" cy="363.6178861788618" fill="rgb(77,77,77)" r="2.973787581841135" stroke="black" stroke-width="1" /><circle cx="798.8571428571429" cy="557.7235772357724" fill="rgb(222,106,89)" r="2.6647910966709842" stroke="black" stroke-width="1" /><circle cx="811.7142857142858" cy="611.5853658536586" fill="rgb(222,140,89)" r="2.6522431707429894" stroke="black" stroke-width="1" /><circle cx="631.7142857142857" cy="525.2032520325204" fill="rgb(43,135,134)" r="2.491547054404303" stroke="black" stroke-width="1" /><circle cx="745.7142857142857" cy="538.4146341463414" fill="rgb(222,106,89)" r="2.365939630352742" stroke="black" stroke-width="1" /><circle cx="507.42857142857144" cy="305.69105691056916" fill="rgb(77,77,77)" r="2.3332087342262504" stroke="black" stroke-width="1" /><circle cx="774.0" cy="492.68292682926835" fill="rgb(222,177,89)" r="2.3071974099822428" stroke="black" stroke-width="1" /><circle cx="853.7142857142857" cy="590.2439024390244" fill="rgb(222,140,89)" r="2.170597984735542" stroke="black" stroke-width="1" /><circle cx="788.5714285714286" cy="546.5447154471544" fill="rgb(222,106,89)" r="1.616381002671262" stroke="black" stroke-width="1" /><circle cx="889.7142857142857" cy="620.7317073170732" fill="rgb(222,140,89)" r="1.1476231894982134" stroke="black" stroke-width="1" /><circle cx="789.4285714285714" cy="554.6747967479675" fill="rgb(77,77,77)" r="1.019295574651383" stroke="black" stroke-width="1" /><circle cx="546.8571428571429" cy="244.71544715447158" fill="rgb(77,77,77)" r="0.9738114873622868" stroke="black" stroke-width="1" /><circle cx="624.0" cy="374.7967479674797" fill="rgb(43,135,134)" r="0.6426810315483777" stroke="black" stroke-width="1" /><circle cx="742.2857142857142" cy="480.4878048780488" fill="rgb(222,106,89)" r="0.6184506118021413" stroke="black" stroke-width="1" /><circle cx="666.8571428571429" cy="345.32520325203257" fill="rgb(43,135,134)" r="0.5979344982200255" stroke="black" stroke-width="1" /><circle cx="853.7142857142857" cy="618.69918699187" fill="rgb(222,140,89)" r="0.40117013654374195" stroke="black" stroke-width="1" /><circle cx="720.8571428571428" cy="462.19512195121956" fill="rgb(222,177,89)" r="0.3908820095223359" stroke="black" stroke-width="1" /><text style="font-size:30" x="400" y="100">Color según continente</text><rect fill="rgb(222,106,89)" height="30" width="50" x="1100" y="300" /><text style="font-size:15" x="1150" y="320">Americas</text><rect fill="rgb(222,177,89)" height="30" width="50" x="1100" y="340" /><text style="font-size:15" x="1150" y="360">Asia</text><rect fill="rgb(43,135,134)" height="30" width="50" x="1100" y="380" /><text style="font-size:15" x="1150" y="400">Oceania</text><rect fill="rgb(222,140,89)" height="30" width="50" x="1100" y="420" /><text style="font-size:15" x="1150" y="440">Europe</text><rect fill="rgb(77,77,77)" height="30" width="50" x="1100" y="460" /><text style="font-size:15" x="1150" y="480">Africa</text></svg>