<?xml version="1.0" encoding="utf-8" ?>
<svg baseProfile="full" height="800px" version="1.1" width="1300px" xmlns="http://www.w3.org/2000/svg" xmlns:ev="http://www.w3.org/2001/xml-events" xmlns:xlink="http://www.w3.org/1999/xlink"><defs /><line stroke="black" stroke-width="2" x1="120" x2="1000" y1="700" y2="700" /><text x="180" y="720">1945</text><text x="240" y="720">1950</text><text x="300" y="720">1955</text><text x="360" y="720">1960</text><text x="420" y="720">1965</text><text x="480" y="720">1970</text><text x="540" y="720">1975</text><text x="600" y="720">1980</text><text x="660" y="720">1985</text><text x="720" y="720">1990</text><text x="780" y="720">1995</text><text x="840" y="720">2000</text><text x="900" y="720">2005</text><text x="960" y="720">2010</text><text x="1020" y="705">Años</text><line stroke="black" stroke-width="2" x1="120" x2="120" y1="700" y2="190" /><text x="45" y="650">100000000</text><text x="45" y="590">200000000</text><text x="45" y="530">300000000</text><text x="45" y="470">400000000</text><text x="45" y="410">500000000</text><text x="45" y="350">600000000</text><text x="45" y="290">700000000</text><text x="100" y="180">Population</text><g fill="red" id="line"><polyline points="120,700 283.43490304709303,564.8192295 324.9861495844889,550.266427 366.53739612188474,535.3939355 408.0886426592806,508.2415995 449.63988919667463,488.2113065 491.1911357340723,462.6517245 532.74238227147,431.944639 574.293628808864,413.42159150000003 615.8448753462617,388.6466825 657.3961218836594,363.5862655 698.9473684210534,339.36887 740.4986149584511,309.43800300000004 782.0498614958451,283.7213175 823.6011080332428,256.192271 1000,700" /></g><g fill="green" id="line"><polyline points="120,700 283.43490304709303,576.3250605000001 324.9861495844889,561.735541 366.53739612188474,547.2148995 408.0886426592806,519.260401 449.63988919667463,498.5129095 491.1911357340723,475.2502015 532.74238227147,448.686516 574.293628808864,430.1202495 615.8448753462617,403.9810015 657.3961218836594,380.4343725 698.9473684210534,361.4300415 740.4986149584511,346.7297355 782.0498614958451,330.294329 823.6011080332428,307.1840735 1000,700" /></g><g fill="blue" id="line"><polyline points="120,700 283.43490304709303,576.3250605000001 324.9861495844889,561.736544 366.53739612188474,547.215401 408.0886426592806,519.3561930000001 449.63988919667463,498.61965299999997 491.1911357340723,475.49645350000003 532.74238227147,449.0570065 574.293628808864,430.9100335 615.8448753462617,404.7772015 657.3961218836594,381.023967 698.9473684210534,362.157061 740.4986149584511,347.58788400000003 782.0498614958451,331.38300100000004 823.6011080332428,308.547951 1000,700" /></g><g fill="black" id="line"><polyline points="120,700 283.43490304709303,576.3250605000001 324.9861495844889,561.746929 366.53739612188474,547.216766 408.0886426592806,519.381961 449.63988919667463,498.66463699999997 491.1911357340723,475.6550115 532.74238227147,449.2305 574.293628808864,432.5201685 615.8448753462617,406.2682355 657.3961218836594,382.46065600000003 698.9473684210534,363.645486 740.4986149584511,349.60593900000003 782.0498614958451,333.63833800000003 823.6011080332428,310.7816735 1000,700" /></g></svg>